<mxfile host="app.diagrams.net" agent="Mozilla/5.0 (Macintosh; Intel Mac OS X 10_15_7) AppleWebKit/605.1.15 (KHTML, like Gecko) Version/18.3 Safari/605.1.15" version="26.0.10" pages="2">
  <diagram name="Casos de Uso" id="0">
    <mxGraphModel dx="1434" dy="760" grid="1" gridSize="10" guides="1" tooltips="1" connect="1" arrows="1" fold="1" page="1" pageScale="1" pageWidth="827" pageHeight="1169" math="0" shadow="0">
      <root>
        <mxCell id="0" />
        <mxCell id="1" parent="0" />
        <mxCell id="user" value="Usuário" style="shape=actor;whiteSpace=wrap;html=1;" parent="1" vertex="1">
          <mxGeometry x="20" y="240" width="40" height="80" as="geometry" />
        </mxCell>
        <mxCell id="system" value="Sistema" style="rounded=1;whiteSpace=wrap;html=1;strokeWidth=2;arcSize=17;align=center;verticalAlign=top;" parent="1" vertex="1">
          <mxGeometry x="140" y="10" width="400" height="500" as="geometry" />
        </mxCell>
        <mxCell id="cadastro_usuario" value="Cadastro de Usuário" style="ellipse;whiteSpace=wrap;html=1;" parent="system" vertex="1">
          <mxGeometry x="60" y="40" width="160" height="60" as="geometry" />
        </mxCell>
        <mxCell id="login_logout" value="Login/Logout" style="ellipse;whiteSpace=wrap;html=1;" parent="system" vertex="1">
          <mxGeometry x="60" y="120" width="160" height="60" as="geometry" />
        </mxCell>
        <mxCell id="criar_grupo" value="Criação de Grupo" style="ellipse;whiteSpace=wrap;html=1;" parent="system" vertex="1">
          <mxGeometry x="60" y="200" width="160" height="60" as="geometry" />
        </mxCell>
        <mxCell id="registrar_despesa" value="Registro de Despesa" style="ellipse;whiteSpace=wrap;html=1;" parent="system" vertex="1">
          <mxGeometry x="60" y="280" width="160" height="60" as="geometry" />
        </mxCell>
        <mxCell id="gerenciar_saldos" value="Gerenciamento de Saldos" style="ellipse;whiteSpace=wrap;html=1;" parent="system" vertex="1">
          <mxGeometry x="60" y="360" width="160" height="60" as="geometry" />
        </mxCell>
        <mxCell id="visualizar_historico" value="Histórico de Transações" style="ellipse;whiteSpace=wrap;html=1;" parent="system" vertex="1">
          <mxGeometry x="60" y="440" width="160" height="60" as="geometry" />
        </mxCell>
        <mxCell id="pagamento_divida" value="Registro de Pagamento" style="ellipse;whiteSpace=wrap;html=1;" parent="system" vertex="1">
          <mxGeometry x="220" y="80" width="160" height="60" as="geometry" />
        </mxCell>
        <mxCell id="edge1" style="edgeStyle=orthogonalEdgeStyle;rounded=0;orthogonalLoop=1;" parent="1" source="user" target="cadastro_usuario" edge="1">
          <mxGeometry relative="1" as="geometry">
            <Array as="points">
              <mxPoint x="180" y="280" />
              <mxPoint x="180" y="90" />
            </Array>
          </mxGeometry>
        </mxCell>
        <mxCell id="edge2" style="edgeStyle=orthogonalEdgeStyle;rounded=0;orthogonalLoop=1;" parent="1" source="user" target="login_logout" edge="1">
          <mxGeometry relative="1" as="geometry">
            <Array as="points">
              <mxPoint x="180" y="280" />
              <mxPoint x="180" y="170" />
            </Array>
          </mxGeometry>
        </mxCell>
        <mxCell id="edge3" style="edgeStyle=orthogonalEdgeStyle;rounded=0;orthogonalLoop=1;" parent="1" source="user" target="criar_grupo" edge="1">
          <mxGeometry relative="1" as="geometry">
            <Array as="points">
              <mxPoint x="180" y="280" />
              <mxPoint x="180" y="240" />
            </Array>
          </mxGeometry>
        </mxCell>
        <mxCell id="edge4" style="edgeStyle=orthogonalEdgeStyle;rounded=0;orthogonalLoop=1;" parent="1" source="user" target="registrar_despesa" edge="1">
          <mxGeometry relative="1" as="geometry" />
        </mxCell>
        <mxCell id="edge5" style="edgeStyle=orthogonalEdgeStyle;rounded=0;orthogonalLoop=1;" parent="1" source="user" target="gerenciar_saldos" edge="1">
          <mxGeometry relative="1" as="geometry">
            <Array as="points">
              <mxPoint x="180" y="280" />
              <mxPoint x="180" y="400" />
            </Array>
          </mxGeometry>
        </mxCell>
        <mxCell id="edge6" style="edgeStyle=orthogonalEdgeStyle;rounded=0;orthogonalLoop=1;" parent="1" source="user" target="visualizar_historico" edge="1">
          <mxGeometry relative="1" as="geometry">
            <Array as="points">
              <mxPoint x="180" y="280" />
              <mxPoint x="180" y="480" />
            </Array>
          </mxGeometry>
        </mxCell>
        <mxCell id="edge7" style="edgeStyle=orthogonalEdgeStyle;rounded=0;orthogonalLoop=1;" parent="1" source="user" target="pagamento_divida" edge="1">
          <mxGeometry relative="1" as="geometry">
            <Array as="points">
              <mxPoint x="40" y="120" />
            </Array>
          </mxGeometry>
        </mxCell>
      </root>
    </mxGraphModel>
  </diagram>
  <diagram id="iT0af1Z2kBdiozjOJXHC" name="UML">
    <mxGraphModel dx="13446" dy="15942" grid="1" gridSize="10" guides="1" tooltips="1" connect="1" arrows="1" fold="1" page="1" pageScale="1" pageWidth="850" pageHeight="1100" math="0" shadow="0">
      <root>
        <mxCell id="0" />
        <mxCell id="1" parent="0" />
        <mxCell id="wVQP4B9ihgDPVryPPI2j-6" edge="1" parent="1" source="wVQP4B9ihgDPVryPPI2j-1" target="wVQP4B9ihgDPVryPPI2j-2" />
        <mxCell id="wVQP4B9ihgDPVryPPI2j-7" edge="1" parent="1" source="wVQP4B9ihgDPVryPPI2j-2" target="wVQP4B9ihgDPVryPPI2j-3" />
        <mxCell id="wVQP4B9ihgDPVryPPI2j-8" edge="1" parent="1" source="wVQP4B9ihgDPVryPPI2j-3" target="wVQP4B9ihgDPVryPPI2j-4" />
        <mxCell id="wVQP4B9ihgDPVryPPI2j-9" edge="1" parent="1" source="wVQP4B9ihgDPVryPPI2j-4" target="wVQP4B9ihgDPVryPPI2j-5" />
        <mxCell id="wVQP4B9ihgDPVryPPI2j-15" value="* joins 1..*" style="edgeStyle=orthogonalEdgeStyle;" edge="1" parent="1" source="wVQP4B9ihgDPVryPPI2j-10" target="wVQP4B9ihgDPVryPPI2j-11" />
        <mxCell id="wVQP4B9ihgDPVryPPI2j-16" value="1 has *" style="edgeStyle=orthogonalEdgeStyle;" edge="1" parent="1" source="wVQP4B9ihgDPVryPPI2j-11" target="wVQP4B9ihgDPVryPPI2j-12" />
        <mxCell id="wVQP4B9ihgDPVryPPI2j-17" value="1 updates *" style="edgeStyle=orthogonalEdgeStyle;" edge="1" parent="1" source="wVQP4B9ihgDPVryPPI2j-12" target="wVQP4B9ihgDPVryPPI2j-13" />
        <mxCell id="wVQP4B9ihgDPVryPPI2j-18" value="1 settles *" style="edgeStyle=orthogonalEdgeStyle;" edge="1" parent="1" source="wVQP4B9ihgDPVryPPI2j-13" target="wVQP4B9ihgDPVryPPI2j-14" />
        <mxCell id="wVQP4B9ihgDPVryPPI2j-24" value="* joins 1..*" style="edgeStyle=orthogonalEdgeStyle;" edge="1" parent="1" source="wVQP4B9ihgDPVryPPI2j-19" target="wVQP4B9ihgDPVryPPI2j-20" />
        <mxCell id="wVQP4B9ihgDPVryPPI2j-25" value="1 has *" style="edgeStyle=orthogonalEdgeStyle;" edge="1" parent="1" source="wVQP4B9ihgDPVryPPI2j-20" target="wVQP4B9ihgDPVryPPI2j-21" />
        <mxCell id="wVQP4B9ihgDPVryPPI2j-26" value="1 updates *" style="edgeStyle=orthogonalEdgeStyle;" edge="1" parent="1" source="wVQP4B9ihgDPVryPPI2j-21" target="wVQP4B9ihgDPVryPPI2j-22" />
        <mxCell id="wVQP4B9ihgDPVryPPI2j-27" value="1 settles *" style="edgeStyle=orthogonalEdgeStyle;" edge="1" parent="1" source="wVQP4B9ihgDPVryPPI2j-22" target="wVQP4B9ihgDPVryPPI2j-23" />
        <mxCell id="wVQP4B9ihgDPVryPPI2j-33" value="* joins 1..*" style="edgeStyle=orthogonalEdgeStyle;" edge="1" parent="1" source="wVQP4B9ihgDPVryPPI2j-28" target="wVQP4B9ihgDPVryPPI2j-29" />
        <mxCell id="wVQP4B9ihgDPVryPPI2j-34" value="1 has *" style="edgeStyle=orthogonalEdgeStyle;" edge="1" parent="1" source="wVQP4B9ihgDPVryPPI2j-29" target="wVQP4B9ihgDPVryPPI2j-30" />
        <mxCell id="wVQP4B9ihgDPVryPPI2j-35" value="1 updates *" style="edgeStyle=orthogonalEdgeStyle;" edge="1" parent="1" source="wVQP4B9ihgDPVryPPI2j-30" target="wVQP4B9ihgDPVryPPI2j-31" />
        <mxCell id="wVQP4B9ihgDPVryPPI2j-36" value="1 settles *" style="edgeStyle=orthogonalEdgeStyle;" edge="1" parent="1" source="wVQP4B9ihgDPVryPPI2j-31" target="wVQP4B9ihgDPVryPPI2j-32" />
        <mxCell id="rLQvUf1EoMjv1qjsxO01-1" value="Classname" style="swimlane;fontStyle=0;childLayout=stackLayout;horizontal=1;startSize=26;fillColor=none;horizontalStack=0;resizeParent=1;resizeParentMax=0;resizeLast=0;collapsible=1;marginBottom=0;whiteSpace=wrap;html=1;" vertex="1" parent="1">
          <mxGeometry x="-1350" y="-1484" width="140" height="104" as="geometry" />
        </mxCell>
        <mxCell id="rLQvUf1EoMjv1qjsxO01-2" value="+ field: type" style="text;strokeColor=none;fillColor=none;align=left;verticalAlign=top;spacingLeft=4;spacingRight=4;overflow=hidden;rotatable=0;points=[[0,0.5],[1,0.5]];portConstraint=eastwest;whiteSpace=wrap;html=1;" vertex="1" parent="rLQvUf1EoMjv1qjsxO01-1">
          <mxGeometry y="26" width="140" height="26" as="geometry" />
        </mxCell>
        <mxCell id="rLQvUf1EoMjv1qjsxO01-3" value="+ field: type" style="text;strokeColor=none;fillColor=none;align=left;verticalAlign=top;spacingLeft=4;spacingRight=4;overflow=hidden;rotatable=0;points=[[0,0.5],[1,0.5]];portConstraint=eastwest;whiteSpace=wrap;html=1;" vertex="1" parent="rLQvUf1EoMjv1qjsxO01-1">
          <mxGeometry y="52" width="140" height="26" as="geometry" />
        </mxCell>
        <mxCell id="rLQvUf1EoMjv1qjsxO01-4" value="+ field: type" style="text;strokeColor=none;fillColor=none;align=left;verticalAlign=top;spacingLeft=4;spacingRight=4;overflow=hidden;rotatable=0;points=[[0,0.5],[1,0.5]];portConstraint=eastwest;whiteSpace=wrap;html=1;" vertex="1" parent="rLQvUf1EoMjv1qjsxO01-1">
          <mxGeometry y="78" width="140" height="26" as="geometry" />
        </mxCell>
        <mxCell id="rLQvUf1EoMjv1qjsxO01-5" value="Classname" style="swimlane;fontStyle=0;childLayout=stackLayout;horizontal=1;startSize=26;fillColor=none;horizontalStack=0;resizeParent=1;resizeParentMax=0;resizeLast=0;collapsible=1;marginBottom=0;whiteSpace=wrap;html=1;" vertex="1" parent="1">
          <mxGeometry x="-1190" y="-1380" width="140" height="104" as="geometry" />
        </mxCell>
        <mxCell id="rLQvUf1EoMjv1qjsxO01-6" value="+ field: type" style="text;strokeColor=none;fillColor=none;align=left;verticalAlign=top;spacingLeft=4;spacingRight=4;overflow=hidden;rotatable=0;points=[[0,0.5],[1,0.5]];portConstraint=eastwest;whiteSpace=wrap;html=1;" vertex="1" parent="rLQvUf1EoMjv1qjsxO01-5">
          <mxGeometry y="26" width="140" height="26" as="geometry" />
        </mxCell>
        <mxCell id="rLQvUf1EoMjv1qjsxO01-7" value="+ field: type" style="text;strokeColor=none;fillColor=none;align=left;verticalAlign=top;spacingLeft=4;spacingRight=4;overflow=hidden;rotatable=0;points=[[0,0.5],[1,0.5]];portConstraint=eastwest;whiteSpace=wrap;html=1;" vertex="1" parent="rLQvUf1EoMjv1qjsxO01-5">
          <mxGeometry y="52" width="140" height="26" as="geometry" />
        </mxCell>
        <mxCell id="rLQvUf1EoMjv1qjsxO01-8" value="+ field: type" style="text;strokeColor=none;fillColor=none;align=left;verticalAlign=top;spacingLeft=4;spacingRight=4;overflow=hidden;rotatable=0;points=[[0,0.5],[1,0.5]];portConstraint=eastwest;whiteSpace=wrap;html=1;" vertex="1" parent="rLQvUf1EoMjv1qjsxO01-5">
          <mxGeometry y="78" width="140" height="26" as="geometry" />
        </mxCell>
        <mxCell id="rLQvUf1EoMjv1qjsxO01-9" value="Classname" style="swimlane;fontStyle=0;childLayout=stackLayout;horizontal=1;startSize=26;fillColor=none;horizontalStack=0;resizeParent=1;resizeParentMax=0;resizeLast=0;collapsible=1;marginBottom=0;whiteSpace=wrap;html=1;" vertex="1" parent="1">
          <mxGeometry x="-1520" y="-1250" width="140" height="104" as="geometry" />
        </mxCell>
        <mxCell id="rLQvUf1EoMjv1qjsxO01-10" value="+ field: type" style="text;strokeColor=none;fillColor=none;align=left;verticalAlign=top;spacingLeft=4;spacingRight=4;overflow=hidden;rotatable=0;points=[[0,0.5],[1,0.5]];portConstraint=eastwest;whiteSpace=wrap;html=1;" vertex="1" parent="rLQvUf1EoMjv1qjsxO01-9">
          <mxGeometry y="26" width="140" height="26" as="geometry" />
        </mxCell>
        <mxCell id="rLQvUf1EoMjv1qjsxO01-11" value="+ field: type" style="text;strokeColor=none;fillColor=none;align=left;verticalAlign=top;spacingLeft=4;spacingRight=4;overflow=hidden;rotatable=0;points=[[0,0.5],[1,0.5]];portConstraint=eastwest;whiteSpace=wrap;html=1;" vertex="1" parent="rLQvUf1EoMjv1qjsxO01-9">
          <mxGeometry y="52" width="140" height="26" as="geometry" />
        </mxCell>
        <mxCell id="rLQvUf1EoMjv1qjsxO01-12" value="+ field: type" style="text;strokeColor=none;fillColor=none;align=left;verticalAlign=top;spacingLeft=4;spacingRight=4;overflow=hidden;rotatable=0;points=[[0,0.5],[1,0.5]];portConstraint=eastwest;whiteSpace=wrap;html=1;" vertex="1" parent="rLQvUf1EoMjv1qjsxO01-9">
          <mxGeometry y="78" width="140" height="26" as="geometry" />
        </mxCell>
        <mxCell id="rLQvUf1EoMjv1qjsxO01-13" value="Classname" style="swimlane;fontStyle=0;childLayout=stackLayout;horizontal=1;startSize=26;fillColor=none;horizontalStack=0;resizeParent=1;resizeParentMax=0;resizeLast=0;collapsible=1;marginBottom=0;whiteSpace=wrap;html=1;" vertex="1" parent="1">
          <mxGeometry x="-1760" y="-1470" width="140" height="104" as="geometry" />
        </mxCell>
        <mxCell id="rLQvUf1EoMjv1qjsxO01-14" value="+ field: type" style="text;strokeColor=none;fillColor=none;align=left;verticalAlign=top;spacingLeft=4;spacingRight=4;overflow=hidden;rotatable=0;points=[[0,0.5],[1,0.5]];portConstraint=eastwest;whiteSpace=wrap;html=1;" vertex="1" parent="rLQvUf1EoMjv1qjsxO01-13">
          <mxGeometry y="26" width="140" height="26" as="geometry" />
        </mxCell>
        <mxCell id="rLQvUf1EoMjv1qjsxO01-15" value="+ field: type" style="text;strokeColor=none;fillColor=none;align=left;verticalAlign=top;spacingLeft=4;spacingRight=4;overflow=hidden;rotatable=0;points=[[0,0.5],[1,0.5]];portConstraint=eastwest;whiteSpace=wrap;html=1;" vertex="1" parent="rLQvUf1EoMjv1qjsxO01-13">
          <mxGeometry y="52" width="140" height="26" as="geometry" />
        </mxCell>
        <mxCell id="rLQvUf1EoMjv1qjsxO01-16" value="+ field: type" style="text;strokeColor=none;fillColor=none;align=left;verticalAlign=top;spacingLeft=4;spacingRight=4;overflow=hidden;rotatable=0;points=[[0,0.5],[1,0.5]];portConstraint=eastwest;whiteSpace=wrap;html=1;" vertex="1" parent="rLQvUf1EoMjv1qjsxO01-13">
          <mxGeometry y="78" width="140" height="26" as="geometry" />
        </mxCell>
        <mxCell id="rLQvUf1EoMjv1qjsxO01-17" value="Classname" style="swimlane;fontStyle=0;childLayout=stackLayout;horizontal=1;startSize=26;fillColor=none;horizontalStack=0;resizeParent=1;resizeParentMax=0;resizeLast=0;collapsible=1;marginBottom=0;whiteSpace=wrap;html=1;" vertex="1" parent="1">
          <mxGeometry x="-1550" y="-1470" width="140" height="104" as="geometry" />
        </mxCell>
        <mxCell id="rLQvUf1EoMjv1qjsxO01-18" value="+ field: type" style="text;strokeColor=none;fillColor=none;align=left;verticalAlign=top;spacingLeft=4;spacingRight=4;overflow=hidden;rotatable=0;points=[[0,0.5],[1,0.5]];portConstraint=eastwest;whiteSpace=wrap;html=1;" vertex="1" parent="rLQvUf1EoMjv1qjsxO01-17">
          <mxGeometry y="26" width="140" height="26" as="geometry" />
        </mxCell>
        <mxCell id="rLQvUf1EoMjv1qjsxO01-19" value="+ field: type" style="text;strokeColor=none;fillColor=none;align=left;verticalAlign=top;spacingLeft=4;spacingRight=4;overflow=hidden;rotatable=0;points=[[0,0.5],[1,0.5]];portConstraint=eastwest;whiteSpace=wrap;html=1;" vertex="1" parent="rLQvUf1EoMjv1qjsxO01-17">
          <mxGeometry y="52" width="140" height="26" as="geometry" />
        </mxCell>
        <mxCell id="rLQvUf1EoMjv1qjsxO01-20" value="+ field: type" style="text;strokeColor=none;fillColor=none;align=left;verticalAlign=top;spacingLeft=4;spacingRight=4;overflow=hidden;rotatable=0;points=[[0,0.5],[1,0.5]];portConstraint=eastwest;whiteSpace=wrap;html=1;" vertex="1" parent="rLQvUf1EoMjv1qjsxO01-17">
          <mxGeometry y="78" width="140" height="26" as="geometry" />
        </mxCell>
        <mxCell id="rLQvUf1EoMjv1qjsxO01-21" value="Classname" style="swimlane;fontStyle=0;childLayout=stackLayout;horizontal=1;startSize=26;fillColor=none;horizontalStack=0;resizeParent=1;resizeParentMax=0;resizeLast=0;collapsible=1;marginBottom=0;whiteSpace=wrap;html=1;" vertex="1" parent="1">
          <mxGeometry x="-1680" y="-1250" width="140" height="104" as="geometry" />
        </mxCell>
        <mxCell id="rLQvUf1EoMjv1qjsxO01-22" value="+ field: type" style="text;strokeColor=none;fillColor=none;align=left;verticalAlign=top;spacingLeft=4;spacingRight=4;overflow=hidden;rotatable=0;points=[[0,0.5],[1,0.5]];portConstraint=eastwest;whiteSpace=wrap;html=1;" vertex="1" parent="rLQvUf1EoMjv1qjsxO01-21">
          <mxGeometry y="26" width="140" height="26" as="geometry" />
        </mxCell>
        <mxCell id="rLQvUf1EoMjv1qjsxO01-23" value="+ field: type" style="text;strokeColor=none;fillColor=none;align=left;verticalAlign=top;spacingLeft=4;spacingRight=4;overflow=hidden;rotatable=0;points=[[0,0.5],[1,0.5]];portConstraint=eastwest;whiteSpace=wrap;html=1;" vertex="1" parent="rLQvUf1EoMjv1qjsxO01-21">
          <mxGeometry y="52" width="140" height="26" as="geometry" />
        </mxCell>
        <mxCell id="rLQvUf1EoMjv1qjsxO01-24" value="+ field: type" style="text;strokeColor=none;fillColor=none;align=left;verticalAlign=top;spacingLeft=4;spacingRight=4;overflow=hidden;rotatable=0;points=[[0,0.5],[1,0.5]];portConstraint=eastwest;whiteSpace=wrap;html=1;" vertex="1" parent="rLQvUf1EoMjv1qjsxO01-21">
          <mxGeometry y="78" width="140" height="26" as="geometry" />
        </mxCell>
        <mxCell id="3u_7lSlUdHfNj1iJRHh6-1" value="Classname" style="swimlane;fontStyle=0;childLayout=stackLayout;horizontal=1;startSize=26;fillColor=none;horizontalStack=0;resizeParent=1;resizeParentMax=0;resizeLast=0;collapsible=1;marginBottom=0;whiteSpace=wrap;html=1;" vertex="1" parent="1">
          <mxGeometry x="-1340" y="-1474" width="140" height="104" as="geometry" />
        </mxCell>
        <mxCell id="3u_7lSlUdHfNj1iJRHh6-2" value="+ field: type" style="text;strokeColor=none;fillColor=none;align=left;verticalAlign=top;spacingLeft=4;spacingRight=4;overflow=hidden;rotatable=0;points=[[0,0.5],[1,0.5]];portConstraint=eastwest;whiteSpace=wrap;html=1;" vertex="1" parent="3u_7lSlUdHfNj1iJRHh6-1">
          <mxGeometry y="26" width="140" height="26" as="geometry" />
        </mxCell>
        <mxCell id="3u_7lSlUdHfNj1iJRHh6-3" value="+ field: type" style="text;strokeColor=none;fillColor=none;align=left;verticalAlign=top;spacingLeft=4;spacingRight=4;overflow=hidden;rotatable=0;points=[[0,0.5],[1,0.5]];portConstraint=eastwest;whiteSpace=wrap;html=1;" vertex="1" parent="3u_7lSlUdHfNj1iJRHh6-1">
          <mxGeometry y="52" width="140" height="26" as="geometry" />
        </mxCell>
        <mxCell id="3u_7lSlUdHfNj1iJRHh6-4" value="+ field: type" style="text;strokeColor=none;fillColor=none;align=left;verticalAlign=top;spacingLeft=4;spacingRight=4;overflow=hidden;rotatable=0;points=[[0,0.5],[1,0.5]];portConstraint=eastwest;whiteSpace=wrap;html=1;" vertex="1" parent="3u_7lSlUdHfNj1iJRHh6-1">
          <mxGeometry y="78" width="140" height="26" as="geometry" />
        </mxCell>
      </root>
    </mxGraphModel>
  </diagram>
</mxfile>
